{
  "accessors": [
    {
      "bufferView": 2,
      "componentType": 5126,
      "count": 27341,
      "max": [
        8.6027679443359375,
        4.6839232444763184,
        -6.7172813415527344
      ],
      "min": [
        -6.5746431350708008,
        -2.6849989891052246,
        -21.803607940673828
      ],
      "type": "VEC3"
    },
    {
      "bufferView": 2,
      "byteOffset": 328092,
      "componentType": 5126,
      "count": 27341,
      "max": [
        0.99964654445648193,
        0.99982500076293945,
        0.99946302175521851
      ],
      "min": [
        -0.99954146146774292,
        -0.99995088577270508,
        -0.99971413612365723
      ],
      "type": "VEC3"
    },
    {
      "bufferView": 3,
      "componentType": 5126,
      "count": 27341,
      "max": [
        0.99999713897705078,
        0.99965071678161621,
        0.99830573797225952,
        1
      ],
      "min": [
        -0.99982506036758423,
        -0.99989569187164307,
        -0.99841415882110596,
        -1
      ],
      "type": "VEC4"
    },
    {
      "bufferView": 1,
      "componentType": 5126,
      "count": 27341,
      "max": [
        0.97907298803329468,
        0.99902099370956421
      ],
      "min": [
        0.00098899996373802423,
        0.00097799999639391899
      ],
      "type": "VEC2"
    },
    {
      "bufferView": 1,
      "byteOffset": 218728,
      "componentType": 5126,
      "count": 27341,
      "max": [
        0.97907298803329468,
        0.99902099370956421
      ],
      "min": [
        0.00098899996373802423,
        0.00097799999639391899
      ],
      "type": "VEC2"
    },
    {
      "bufferView": 0,
      "componentType": 5125,
      "count": 138498,
      "max": [
        27340
      ],
      "min": [
        0
      ],
      "type": "SCALAR"
    }
  ],
  "asset": {
    "extras": {
      "author": "Scottish Maritime Museum (https://sketchfab.com/ScottishMaritimeMuseum)",
      "license": "CC0-1.0 (http://creativecommons.org/publicdomain/zero/1.0/)",
      "source": "https://sketchfab.com/3d-models/model-of-pak-jute-mill-ltd-jute-boat-5b7c03fa21c74489a84c9d2d65a9d5e8",
      "title": "Model of Pak Jute Mill Ltd Jute Boat"
    },
    "generator": "Sketchfab-7.80.0",
    "version": "2.0"
  },
  "bufferViews": [
    {
      "buffer": 0,
      "byteLength": 553992,
      "byteOffset": 0,
      "name": "floatBufferViews",
      "target": 34963
    },
    {
      "buffer": 0,
      "byteLength": 437456,
      "byteOffset": 553992,
      "byteStride": 8,
      "name": "floatBufferViews",
      "target": 34962
    },
    {
      "buffer": 0,
      "byteLength": 656184,
      "byteOffset": 991448,
      "byteStride": 12,
      "name": "floatBufferViews",
      "target": 34962
    },
    {
      "buffer": 0,
      "byteLength": 437456,
      "byteOffset": 1647632,
      "byteStride": 16,
      "name": "floatBufferViews",
      "target": 34962
    }
  ],
  "buffers": [
    {
      "byteLength": 2085088,
      "uri": "scene.bin"
    }
  ],
  "images": [
    {
      "uri": "textures/VerdantWorks_Sketchfab_baseColor.png"
    },
    {
      "uri": "textures/VerdantWorks_Sketchfab_normal.png"
    }
  ],
  "materials": [
    {
      "doubleSided": true,
      "emissiveFactor": [
        0,
        0,
        0
      ],
      "name": "VerdantWorks_Sketchfab",
      "normalTexture": {
        "index": 1,
        "scale": 0.68655303030303028,
        "texCoord": 0
      },
      "pbrMetallicRoughness": {
        "baseColorFactor": [
          1,
          1,
          1,
          1
        ],
        "baseColorTexture": {
          "index": 0,
          "texCoord": 0
        },
        "metallicFactor": 0,
        "roughnessFactor": 0.90842690167130768
      }
    }
  ],
  "meshes": [
    {
      "name": "GoodGrid_VerdantWorks_Sketchfab_0",
      "primitives": [
        {
          "attributes": {
            "NORMAL": 1,
            "POSITION": 0,
            "TANGENT": 2,
            "TEXCOORD_0": 3,
            "TEXCOORD_1": 4
          },
          "indices": 5,
          "material": 0,
          "mode": 4
        }
      ]
    }
  ],
  "nodes": [
    {
      "children": [
        1
      ],
      "name": "RootNode (gltf orientation matrix)",
      "rotation": [
        -0.70710678118654746,
        -0,
        -0,
        0.70710678118654757
      ]
    },
    {
      "children": [
        2
      ],
      "name": "RootNode (model correction matrix)"
    },
    {
      "children": [
        3
      ],
      "matrix": [
        1,
        0,
        0,
        0,
        0,
        0,
        1,
        0,
        0,
        -1,
        0,
        0,
        0,
        0,
        0,
        1
      ],
      "name": "45e00b4016f94c5d8e1c49d0cc7dd475.fbx"
    },
    {
      "children": [
        4
      ],
      "name": "RootNode"
    },
    {
      "children": [
        5
      ],
      "matrix": [
        0.49036849125506998,
        -0.015126605697210749,
        0.87138391572504215,
        0,
        0.38777081279259656,
        0.89921308362710106,
        -0.202607075345382,
        0,
        -0.78049506054195839,
        0.43724937510981232,
        0.44681141932104118,
        0,
        -0.15515375137329102,
        -0.141021728515625,
        0.71956968307495117,
        1
      ],
      "name": "GoodGrid"
    },
    {
      "children": [
        6
      ],
      "matrix": [
        1,
        0,
        -0,
        0,
        0,
        1,
        0,
        0,
        0,
        0,
        1,
        0,
        -1.0140624046325684,
        -0.99946165084838867,
        14.260445594787598,
        1
      ],
      "name": ""
    },
    {
      "mesh": 0,
      "name": "GoodGrid_VerdantWorks_Sketchfab_0"
    }
  ],
  "samplers": [
    {
      "magFilter": 9729,
      "minFilter": 9987,
      "wrapS": 10497,
      "wrapT": 10497
    }
  ],
  "scene": 0,
  "scenes": [
    {
      "name": "OSG_Scene",
      "nodes": [
        0
      ]
    }
  ],
  "textures": [
    {
      "sampler": 0,
      "source": 0
    },
    {
      "sampler": 0,
      "source": 1
    }
  ]
}

